<?xml version="1.0" encoding="UTF-8"?>
<svg id="texte" xmlns="http://www.w3.org/2000/svg" viewBox="0 0 654 654">
  <defs>
    <style>
      .cls-1 {
        fill: #010101;
      }

      .cls-2 {
        fill: #096d90;
      }

      .cls-3 {
        fill: #d4a793;
      }

      .cls-4 {
        fill: #f8aa30;
      }

      .cls-5 {
        fill: #fff;
      }

      .cls-6 {
        fill: #c77e71;
      }
    </style>
  </defs>
  <polygon class="cls-5" points="176.46 498.11 170.94 503.63 170.95 503.63 176.45 498.13 176.46 498.11"/>
  <path class="cls-5" d="M229.73,444.87l29.93,29.93h0s-29.94-29.94-29.94-29.94l-53.17,53.16h0c10.31,9.79,21.52,18.64,33.49,26.4h0c-11.98-7.76-23.18-16.61-33.49-26.39l53.17-53.16Z"/>
  <path class="cls-5" d="M320.15,568.02c-17.22-1.07-34.26-3.98-50.81-8.67,16.54,4.69,33.58,7.6,50.81,8.67Z"/>
  <path class="cls-5" d="M220.6,530.84h0c8.19,4.71,16.7,8.93,25.49,12.62-8.79-3.69-17.3-7.91-25.49-12.62Z"/>
  <path class="cls-5" d="M336.64,568.5c16.76-.09,33.44-1.92,49.78-5.45h0c-16.34,3.53-33.02,5.36-49.78,5.45h0Z"/>
  <path class="cls-5" d="M306.84,521.87h-.01s-31.59,31.58-31.59,31.58h0s.01,0,.02,0l31.59-31.59Z"/>
  <path class="cls-5" d="M206.17,363.81c1.17,1.17,2.71,1.76,4.24,1.76s3.07-.59,4.24-1.76l9.4-9.4,28.93-28.93,5.57-5.57h3.76c3.23,4.53,8.32,8.5,14.39,8.5,10.57,0,16.93-8.5,21.6-8.5,5.84,0,7.54,3.32,14.28,4.14.59.08,1.16.09,1.73.08l.04-.04,12.65-12.65-30-30-14.54,14.54c4.29,4.67,6.97,10.83,7.24,17.65v.41c-.01.1-.02.21-.02.32-.01.09-.02.19-.03.28-.02.11-.03.22-.05.32-.02.09-.04.18-.06.27-.03.1-.05.2-.08.3-.03.09-.06.18-.09.27-.03.09-.06.19-.1.28-.04.09-.08.18-.12.27-.05.09-.09.17-.13.26-.04.09-.09.18-.14.26-.05.08-.1.16-.15.24-.06.08-.11.16-.17.24-.05.08-.11.16-.17.23s-.13.15-.19.22c-.06.07-.12.14-.19.21-.06.07-.13.13-.2.2-.07.07-.15.14-.22.2-.07.06-.15.12-.22.18-.08.06-.16.12-.24.18-.07.05-.15.1-.23.15-.09.06-.17.11-.26.16-.08.04-.17.09-.25.13-.09.05-.18.09-.27.13-.09.04-.18.07-.27.11-.1.03-.19.07-.28.1-.1.04-.19.06-.29.09-.09.02-.19.05-.28.07-.1.02-.2.04-.3.06-.1.01-.19.03-.29.04-.1.01-.21.03-.31.03-.06.01-.13.02-.19.02h-25.36l-5.57,5.57-28.93,28.93-9.4,9.4c-1.17,1.17-2.71,1.76-4.24,1.76s-3.07-.59-4.24-1.76c-1.16-1.17-1.74-2.69-1.75-4.22,0,1.55.57,3.09,1.75,4.27Z"/>
  <path class="cls-5" d="M298.29,513.43l-30.61,30.57h0c-.07.07-.12.15-.19.23l-5.29,5.29c-5.46-1.82-10.84-3.85-16.11-6.06,5.27,2.21,10.64,4.24,16.11,6.06l-5.76,5.76c-14.37-4.97-28.26-11.29-41.4-18.88h0c13.15,7.61,27.04,13.92,41.41,18.89l5.76-5.76,5.29-5.29c.07-.08.12-.17.19-.24l30.61-30.57h0Z"/>
  <path class="cls-5" d="M163.86,339.8h-.01l28.11-28.1-29.95-29.95-51.32,51.32c.18,18,2.49,35.79,6.87,53.04l46.25-46.25s.05-.06.05-.06ZM140.84,332.86c-6.73-6.73-6.73-17.68,0-24.41,6.72-6.72,17.67-6.72,24.4,0h0c6.73,6.73,6.73,17.68,0,24.41-3.27,3.26-7.6,5.06-12.21,5.06s-8.94-1.8-12.19-5.06Z"/>
  <path class="cls-5" d="M115.74,311.04l-4.55,4.55s0,0,0,.01l4.56-4.56s.04-.05.04-.05h0s-.04.05-.04.05Z"/>
  <polygon class="cls-5" points="153.84 272.96 127.12 246.24 127.12 246.25 153.83 272.96 153.84 272.96"/>
  <path class="cls-5" d="M273.96,304.52c-1.31-1.54-2.92-2.81-4.74-3.74-.31-.16-.62-.31-.94-.45-1.65-.71-3.43-1.16-5.32-1.27-.11-.01-.23-.03-.34-.04-.04-.01-.09-.01-.13-.01-.08-.01-.17-.02-.25-.04-.06-.01-.11-.02-.16-.03-.33-.07-.65-.16-.95-.28-.03-.01-.06-.03-.09-.04-.32-.14-.62-.29-.91-.47-.01-.01-.02-.02-.03-.02-.3-.19-.58-.4-.84-.64,0-.01-.02-.01-.02-.01-.25-.23-.48-.49-.69-.76-.02-.02-.04-.05-.06-.07-.2-.27-.37-.55-.52-.85-.02-.04-.04-.07-.06-.11-.15-.31-.27-.62-.36-.95-.01-.04-.03-.07-.03-.11-.09-.33-.15-.68-.18-1.03-.01-.02-.01-.04-.01-.06h0c-.37-5.03-4.62-8.96-9.66-8.96s-8.81,3.46-9.56,8.13c-.02.16-.05.31-.07.47,0,.04-.02.07-.02.11-.02.15-.05.31-.08.46-.01.06-.03.13-.05.2-.03.12-.06.24-.1.36-.03.09-.07.18-.1.27-.03.09-.06.17-.1.26-.04.11-.09.21-.14.31-.04.07-.07.14-.11.21-.06.1-.12.2-.18.3-.04.07-.08.13-.12.2-.06.1-.12.18-.19.27-.05.06-.11.13-.16.2-.07.07-.13.15-.2.22-.07.07-.13.14-.2.21-.06.06-.13.12-.19.18-.08.07-.16.14-.24.21-.07.05-.13.1-.2.15-.09.06-.18.13-.27.19-.07.05-.15.09-.22.14-.09.06-.18.11-.27.16-.09.05-.19.09-.29.14-.07.03-.14.07-.22.1-.14.06-.27.1-.41.15-.05.02-.09.04-.14.05-.18.06-.36.1-.54.14h-.03c-.24.05-.47.14-.7.21-2.79.89-4.76,3.51-4.76,6.5l.02.03c0,.97.21,1.91.6,2.78h47.73c-.59-1.22-1.33-2.35-2.2-3.37Z"/>
  <path class="cls-5" d="M448.04,299.41c1.56-2.58,2.41-5.56,2.41-8.62,0-9.04-7.22-16.41-16.19-16.69-.18-.01-.35-.03-.53-.03-.63,0-1.23.04-1.77.1h-.13c-.15.01-.29.03-.44.03-.14.01-.29,0-.43,0h-.13c-.18-.01-.36-.03-.54-.06h-.02c-.38-.06-.75-.16-1.1-.29h-.01c-.17-.06-.34-.13-.5-.21-.02-.01-.04-.02-.05-.02-.15-.07-.3-.15-.44-.24-.03-.02-.05-.03-.08-.05-.13-.09-.26-.18-.39-.27-.03-.03-.06-.05-.09-.07-.13-.1-.26-.21-.38-.32-.02-.02-.05-.04-.07-.06-.29-.27-.55-.57-.79-.9-.01-.02-.03-.03-.04-.05-.45-.63-.95-1.22-1.49-1.77-2.97-3.05-7.07-4.82-11.38-4.82-8.77,0-15.91,7.14-15.91,15.91v.18c0,.09-.01.19-.01.29,0,.11,0,.22-.02.33v.06c-.03.19-.05.37-.09.55-.01.03-.03.07-.03.1-.01.07-.03.14-.05.21-.02.09-.04.17-.07.26-.02.08-.05.15-.08.23-.04.11-.08.22-.12.32-.05.1-.1.2-.15.3-.04.07-.07.15-.11.22-.06.12-.13.22-.2.33-.03.06-.06.12-.1.17-.07.11-.15.21-.23.31-.04.06-.08.11-.12.16-.08.09-.16.17-.24.26-.05.05-.1.11-.15.16-.07.07-.15.14-.23.21-.07.06-.13.12-.2.18-.07.06-.14.11-.21.16-.09.07-.17.13-.26.19-.06.04-.13.07-.19.11-.1.06-.2.12-.31.18-.06.03-.12.06-.18.09-.11.05-.22.11-.34.16-.07.02-.13.05-.2.07-.12.04-.23.08-.35.12-.08.02-.17.04-.25.06-.11.03-.21.06-.32.08-.1.02-.21.03-.31.05h-.04c-.08.02-.16.04-.24.04-.13.02-.27.02-.41.02h-.19c-.08,0-.15-.01-.23-.01-.13,0-.26-.01-.39-.02-.2-.02-.42-.02-.61-.02v.03c-3.58,0-6.73,1.82-8.58,4.58l7.71,7.71h58.59Z"/>
  <path class="cls-5" d="M369.35,356.51c1.36,2.31,1.07,5.31-.9,7.29l-5.27,5.27h0s5.26-5.26,5.26-5.26c1.98-1.98,2.27-5,.9-7.3Z"/>
  <path class="cls-5" d="M483.66,316.71l-5.32-5.32h0s5.32,5.33,5.32,5.33l69.39,69.39c4.57-18.03,6.89-36.61,6.89-55.38h0c0,18.76-2.32,37.34-6.89,55.37l-69.39-69.39Z"/>
  <polygon class="cls-5" points="448.82 531.58 448.81 531.58 454.34 537.11 454.34 537.1 448.82 531.58"/>
  <path class="cls-5" d="M479.43,329.43l-29.95,29.95h0s29.94-29.93,29.94-29.93l69.87,69.86c-7.28,22.73-18.14,44.07-32.09,63.28,13.97-19.22,24.83-40.56,32.1-63.3l-69.87-69.86Z"/>
  <path class="cls-5" d="M341.1,336.38c7.59-5.77,11.38-8.49,17.29-6.95,9.38,2.44,14.54,18.62,32.33,17.09,9.99-.86,16.86-4.74,20.94-7.97l1.5,1.5,1.12,1.12,27.05,27.05c1.17,1.17,2.71,1.76,4.24,1.76s3.07-.59,4.24-1.76c0,0,0,0,0,0-1.17,1.17-2.71,1.76-4.23,1.76s-3.07-.59-4.24-1.76l-27.05-27.05-1.12-1.12-1.5-1.5-2.2-2.2-24.97-24.97-3.14-3.14-2.86-2.86-4-4-1.28-1.28-5.08-5.08-3.88-3.88-24.54,24.54-16.17,16.17-56.23,56.23s0,0,0,0l56.22-56.22c5.07,6.16,10.92,9.57,17.55,4.53Z"/>
  <path class="cls-5" d="M484.11,506.92l-129.39-129.39-15.02,15.02c-11.4,11.4-26.61,17.68-42.68,17.68s-31.19-6.24-42.57-17.58c-.03-.02-.05-.05-.08-.08,0,0-.02-.02-.02-.02-.01-.01-.02-.03-.03-.04-.27-.27-.51-.56-.72-.88-.01-.02-.03-.05-.04-.07-.2-.31-.38-.63-.52-.98,0-.01-.02-.03-.02-.04-.1-.25-.18-.51-.25-.77,0-.04-.02-.07-.02-.1-.06-.27-.1-.54-.13-.81v-.03c-.01-.17-.03-.34-.03-.52,0-.09.01-.19.01-.28v-.04c.01-.28.05-.56.1-.83.05-.27.13-.54.22-.81.01-.02.02-.03.02-.05.09-.25.19-.49.31-.72.02-.02.03-.05.04-.07.13-.24.27-.46.42-.68,0,.01-.01.02-.02.03-.16.22-.3.45-.43.69-.02.02-.03.05-.04.07-.12.23-.22.47-.31.72-.01.02-.02.03-.02.05-.09.26-.17.53-.22.81-.05.27-.08.55-.1.83v.04c0,.09-.01.18-.01.28,0,.17.01.35.03.52v.03c.03.28.07.55.13.81,0,.04.02.07.02.1.07.26.15.52.25.77,0,.01.02.03.02.04.14.34.32.67.52.98.01.02.02.05.04.07.21.32.45.61.72.88.01.01.02.03.03.04,0,.01.02.02.02.02.03.02.05.05.08.08,11.39,11.34,26.45,17.58,42.57,17.58s31.28-6.28,42.68-17.68v.04s15.02-15.02,15.02-15.02l129.37,129.37s.01-.01.02-.02l5.58,5.58s.03-.02.04-.03l-5.59-5.59Z"/>
  <path class="cls-5" d="M437.66,537.45s.01,0,.02,0l1.37,1.37h0l-1.37-1.37-39.44-39.45c-.87-.87-1.41-1.95-1.64-3.07.22,1.14.76,2.23,1.65,3.11l39.41,39.42Z"/>
  <path class="cls-5" d="M349.08,556.11c1.17-1.18,1.75-2.71,1.75-4.25,0,1.52-.59,3.04-1.75,4.2l-5.11,5.12h-.01s.03,0,.05,0l5.07-5.08Z"/>
  <path class="cls-5" d="M380.3,556.96s.02,0,.03,0l-20.54-20.54c-.87-.87-1.41-1.94-1.64-3.06.22,1.14.77,2.22,1.65,3.1l20.5,20.5Z"/>
  <path class="cls-5" d="M211.3,350.14l.02-.02-20.4-20.4-69.57,69.57s0,.02.01.04l69.56-69.56,20.38,20.38Z"/>
  <polygon class="cls-1" points="176.56 498.02 176.55 498.03 176.55 498.03 176.56 498.02"/>
  <polygon class="cls-1" points="454.34 537.11 454.35 537.11 454.34 537.1 454.34 537.11"/>
  <path class="cls-1" d="M571.05,309.92c-2.31-26.6-9.06-52.39-20.05-76.67-.12-.26-.26-.51-.41-.75-.03-.05-.06-.09-.09-.14-.2-.29-.43-.57-.68-.84-.01-.01-.02-.03-.04-.05-.01,0-.03-.02-.04-.03-.26-.26-.55-.49-.85-.69-.04-.02-.07-.05-.11-.07-.29-.19-.6-.35-.92-.48-.04-.02-.08-.04-.13-.05-.32-.13-.66-.23-1-.3-.03,0-.07-.02-.1-.02-.35-.07-.71-.1-1.06-.1h-.07c-.35,0-.71.04-1.05.1-.04,0-.07.01-.11.02-.33.07-.65.17-.97.29-.06.02-.11.04-.17.07-.05.02-.1.04-.14.06-.26.12-.51.26-.75.41-.05.03-.09.06-.13.09-.29.2-.57.43-.84.68-.01.01-.03.02-.05.04l-75.67,75.67c-1.13,1.13-1.76,2.65-1.76,4.24s.63,3.12,1.76,4.24l5.32,5.32-29.94,29.94-18.21-18.2-4.84-4.84-16.49-16.49h49.65c.21,0,.42-.01.63-.03.02,0,.04,0,.07-.01.19-.02.37-.05.55-.09.04,0,.08-.02.13-.03.16-.04.31-.08.47-.13.06-.02.13-.05.19-.07.13-.05.25-.09.38-.15.08-.03.15-.07.23-.11.11-.05.21-.11.31-.16.08-.05.16-.1.24-.15.09-.06.19-.12.28-.19.08-.06.16-.11.23-.17.09-.07.18-.15.27-.23.07-.06.13-.12.2-.18.1-.1.2-.21.3-.31.04-.04.07-.07.11-.12,0-.01.02-.02.02-.03.05-.06.09-.12.13-.17,4.26-5.13,6.61-11.61,6.61-18.29,0-15.75-12.76-28.58-28.48-28.71-5.24-5.68-12.69-9-20.51-9-13.52,0-24.82,9.66-27.37,22.45-5.14.99-9.66,3.75-12.9,7.62l-4.7-4.7c-2.34-2.34-6.14-2.34-8.49,0l-24.54,24.54-34.24-34.25c-1.13-1.13-2.65-1.76-4.24-1.76s-3.12.63-4.24,1.76l-20.32,20.32c-1.32-.53-2.7-.96-4.12-1.29-2.8-8.81-11.08-15.18-20.67-15.18s-18.03,6.38-20.75,15.36c-6.6,3-11.08,9.67-11.08,17.16,0,4.64,1.7,9.06,4.77,12.52.06.07.11.14.18.21.04.05.08.1.12.14.02.02.05.05.07.07.08.08.17.16.25.24.07.06.13.12.2.18.08.07.17.13.25.2.08.06.15.12.23.17.08.06.17.11.26.16.08.05.16.1.25.15.11.06.22.11.32.16.07.03.14.07.21.1.28.12.56.21.85.29.29.07.58.13.89.16.16.02.33.02.49.02h16.43l-21.77,21.77-20.41-20.41,5.28-5.28c2.34-2.34,2.34-6.14,0-8.49l-36.88-36.88c-.29-.68-.71-1.32-1.26-1.87l-37.23-37.23s-.03-.02-.05-.04c-.26-.26-.54-.48-.84-.68-.04-.03-.09-.06-.13-.09-.24-.15-.49-.29-.75-.41-.05-.02-.1-.04-.14-.06-.06-.02-.11-.05-.17-.07-.32-.12-.64-.22-.97-.29-.04,0-.07-.01-.11-.02-.35-.06-.7-.1-1.05-.1h-.08c-.35,0-.71.04-1.05.1-.04,0-.07.02-.11.02-.34.07-.67.17-.99.29-.04.02-.09.04-.13.06-.32.13-.62.29-.92.48-.04.02-.07.05-.11.07-.3.2-.58.43-.84.69,0,.01-.03.02-.04.03s-.02.03-.04.05c-.26.26-.49.54-.69.84-.03.04-.06.09-.09.13-.15.24-.3.49-.42.75-13.88,30.66-20.92,63.41-20.94,97.35v.12c0,23.41,3.4,46.5,10.12,68.64,10.63,35.14,29.61,67.66,55.04,94.41l-5.72,5.72s0,.01-.01.02c0,0-.01,0-.02.02-.14.14-.25.31-.37.46-.13.16-.27.3-.38.47-.11.16-.18.34-.27.51-.09.18-.2.35-.28.53-.07.18-.11.36-.16.54-.06.19-.13.38-.16.57-.03.18-.04.37-.05.55-.02.2-.05.39-.05.59,0,.18.03.36.05.54.02.2.02.41.06.6.04.18.1.35.16.53.06.19.1.39.18.58.07.18.18.34.27.52s.17.36.28.52c.11.17.26.32.4.48.12.15.22.3.36.44,0,0,.01,0,.02.01,0,0,0,.01.02.02,13.37,13.18,28.14,24.82,43.89,34.6,0,0,0,0,.02.01.04.03.08.05.12.08,16.89,10.49,35.06,18.96,53.98,25.17,21.32,7,43.53,11.14,66,12.29,2.12.12,4.27.2,6.56.26,2.22.06,4.44.09,6.66.09,21.75,0,43.39-2.79,64.41-8.31,19.62-5.14,38.6-12.66,56.4-22.36,16.55-9.02,32.12-19.94,46.28-32.46.07-.06.14-.13.2-.2.02-.02.04-.03.06-.05.02-.02.03-.03.04-.05.26-.26.48-.54.68-.83.03-.04.05-.07.08-.11.19-.29.35-.6.48-.92.02-.04.04-.09.06-.13.12-.32.22-.64.29-.97,0-.05.02-.09.03-.14.06-.33.09-.67.1-1.01v-.14c0-.34-.04-.68-.1-1.01,0-.04-.01-.09-.02-.13-.07-.33-.17-.66-.29-.98-.02-.04-.03-.09-.05-.13-.13-.32-.29-.62-.48-.91-.03-.04-.05-.09-.08-.13-.14-.21-.3-.42-.48-.62-.06-.07-.13-.14-.2-.2-.02-.02-.03-.04-.05-.06l-5.43-5.43c30.29-28.44,52.55-64.22,64.54-103.85v.05c6.71-22.18,10.11-45.28,10.11-68.64,0-6.91-.3-13.9-.9-20.8ZM543.5,246.23c6.24,15.34,10.72,31.26,13.42,47.58l-30.5-30.5,17.08-17.08ZM390.31,287.12v-.03c.2,0,.42,0,.62.02.13.01.26.02.39.02.08,0,.15.01.23.01h.19c.14,0,.28,0,.41-.02.08,0,.16-.02.24-.04h.04c.1-.02.21-.03.31-.05.11-.02.21-.05.32-.08.08-.02.17-.04.25-.06.12-.04.23-.08.35-.12.07-.02.13-.05.2-.07.12-.05.23-.11.34-.16.06-.03.12-.06.18-.09.11-.06.21-.12.31-.18.06-.04.13-.07.19-.11.09-.06.17-.12.26-.19.07-.05.14-.1.21-.16.07-.06.13-.12.2-.18.08-.07.16-.14.23-.21.05-.05.1-.11.15-.16.08-.09.16-.17.24-.26.04-.05.08-.1.12-.16.08-.1.16-.2.23-.31.04-.05.07-.11.1-.17.07-.11.14-.21.2-.33.04-.07.07-.15.11-.22.05-.1.1-.2.15-.3.04-.1.08-.21.12-.32.03-.08.06-.15.08-.23.03-.09.05-.17.07-.26.02-.07.04-.14.05-.21,0-.03.02-.07.03-.1.04-.18.06-.36.09-.55v-.06c.01-.11.01-.22.02-.33,0-.1.01-.2.01-.29v-.18c0-8.77,7.14-15.91,15.91-15.91,4.31,0,8.41,1.77,11.38,4.82.54.55,1.04,1.14,1.49,1.77.01.02.03.03.04.05.24.33.5.63.79.9.02.02.05.04.07.06.12.11.25.22.38.32.03.02.06.04.09.07.13.09.26.18.39.27.03.02.05.03.08.05.14.09.29.17.44.24.01,0,.03.01.05.02.16.08.33.15.5.21h.01c.35.13.72.23,1.1.29h.02c.18.03.36.05.54.06h.13c.14,0,.29.01.43,0,.15,0,.29-.02.44-.03h.13c.54-.06,1.14-.1,1.77-.1.18,0,.35.02.53.03,8.97.28,16.19,7.65,16.19,16.69,0,3.06-.85,6.04-2.41,8.62h-58.59l-7.71-7.71c1.85-2.76,5-4.58,8.57-4.58ZM228.43,307.89c-.39-.87-.6-1.81-.6-2.78l-.02-.03c0-2.99,1.97-5.61,4.76-6.5.23-.07.46-.16.7-.21h.03c.18-.04.36-.08.54-.14.05-.01.09-.03.14-.05.14-.05.27-.09.41-.15.08-.03.15-.07.22-.1.1-.05.2-.09.29-.14.09-.05.18-.1.27-.16.07-.05.15-.09.22-.14.09-.06.18-.13.27-.19.07-.05.13-.1.2-.15.08-.07.16-.14.24-.21.06-.06.13-.12.19-.18.07-.07.13-.14.2-.21.07-.07.13-.15.2-.22.05-.07.11-.14.16-.2.07-.09.13-.17.19-.27.04-.07.08-.13.12-.2.06-.1.12-.2.18-.3.04-.07.07-.14.11-.21.05-.1.1-.2.14-.31.04-.09.07-.17.1-.26.03-.09.07-.18.1-.27.04-.12.07-.24.1-.36.02-.07.04-.14.05-.2.03-.15.06-.31.08-.46,0-.04.01-.07.02-.11.02-.16.05-.31.07-.47.75-4.67,4.77-8.13,9.56-8.13,5.04,0,9.29,3.93,9.66,8.95h0s0,.05.01.07c.03.35.09.7.18,1.03,0,.04.02.07.03.11.09.33.21.64.36.95.02.04.04.07.06.11.15.3.32.58.52.85.02.02.04.05.06.07.21.27.44.53.69.76,0,0,.01,0,.02.01.26.24.54.45.84.64.01,0,.02.01.03.02.29.18.59.33.91.47.03.01.06.03.09.04.3.12.62.21.95.28.05.01.1.02.16.03.08.02.17.03.25.04.04,0,.09,0,.13.01.11.01.23.03.34.04,1.89.11,3.67.56,5.32,1.27.32.14.63.29.94.45,1.82.93,3.43,2.2,4.74,3.74.87,1.02,1.61,2.15,2.2,3.37h-47.73ZM127.11,246.24h0s0,0,0,0l26.72,26.72h-.01s-38.04,38.03-38.04,38.03h0s-.03.04-.04.05l-4.56,4.56s0,0,0-.01h-.01c1.58-23.95,6.92-47.19,15.93-69.35ZM110.69,333.07l51.32-51.32,29.95,29.95-28.11,28.1h.01s-.03.04-.05.06l-46.25,46.25c-4.38-17.25-6.69-35.04-6.87-53.04ZM211.23,523.26c-.07.06-.14.13-.21.2l-.96.96s0,0-.01,0h0s0,0,0,0l-5.54,5.54c-11.88-7.71-23.14-16.52-33.58-26.31l.02-.02s0,0,0,0l5.52-5.52v.02s.02-.02.04-.04c.02-.02.04-.05.04-.05h.01s.01-.02.01-.02l53.17-53.16,29.94,29.94h0s0,0,0,0l-48.44,48.44h0ZM267.49,544.24l-5.29,5.29-5.76,5.76c-14.37-4.97-28.26-11.28-41.41-18.88h0s0,0,0-.01l4.26-4.26c.07-.06.14-.13.21-.2l1.1-1.1h0s0,0,0,0l47.55-47.55,30.14,30.14h0,0s-30.61,30.57-30.61,30.57c-.07.07-.12.16-.19.24ZM331.27,556.93h.01c-.07.07-.14.13-.21.2l-4.09,4.09s-.02,0-.03,0l-6.8,6.8c-17.23-1.07-34.27-3.98-50.81-8.67l5.9-5.9s0,0,0,0h.01l31.59-31.59h.01s0,.01,0,.01l29.55,29.93-5.12,5.13ZM489.67,512.55c-11.01,9.24-22.87,17.46-35.32,24.56h0s-.01,0-.01,0l-5.53-5.53s-.01,0-.02.01l-1.23-1.23c-.07-.07-.14-.13-.21-.2l-40.61-40.62c-2.35-2.34-6.15-2.34-8.49,0-1.46,1.46-2.01,3.49-1.65,5.38.22,1.13.77,2.2,1.64,3.07l39.44,39.45,1.37,1.37c.07.07.14.13.21.2l4.02,4.02c-3.46,1.73-6.96,3.38-10.5,4.94-8.85,3.9-17.93,7.27-27.19,10.08-1.85.56-3.71,1.1-5.58,1.62l-5.86-5.86s-.02,0-.02,0l-25.85-25.85c-2.35-2.34-6.15-2.35-8.49,0-1.46,1.47-2.01,3.5-1.65,5.39.23,1.12.77,2.19,1.64,3.06l20.54,20.54h0l6.09,6.09h0,0c-16.34,3.53-33.02,5.36-49.78,5.45h0s2.7-2.7,2.7-2.7c.07-.07.14-.13.21-.2l4.41-4.41h.01s-.01,0-.01,0h.01s5.11-5.13,5.11-5.13c1.16-1.16,1.74-2.68,1.75-4.2,0-1.52-.58-3.04-1.73-4.21l-37.98-38.47c-.28-.28-.59-.54-.92-.76l-37.81-37.81-38.43-38.43c-1.12-1.13-2.65-1.76-4.24-1.76s-3.11.64-4.24,1.76l-53.17,53.16c-23.21-24.49-40.72-54.05-50.95-86.01h.01s0-.04-.01-.05l69.57-69.57,20.4,20.4-.02.02.02.03-5.16,5.16c-1.16,1.17-1.74,2.69-1.75,4.22,0,1.53.59,3.05,1.75,4.22,1.17,1.17,2.71,1.76,4.24,1.76s3.07-.59,4.24-1.76l9.4-9.4,28.93-28.93,5.57-5.57h25.36c.06,0,.13-.01.19-.02.1,0,.21-.02.31-.03.1-.01.19-.03.29-.04.1-.02.2-.04.3-.06.09-.02.19-.05.28-.07.1-.03.19-.05.29-.09.09-.03.18-.07.28-.1.09-.04.18-.07.27-.11.09-.04.18-.08.27-.13.08-.04.17-.09.25-.13.09-.05.17-.1.26-.16.08-.05.16-.1.23-.15.08-.06.16-.12.24-.18.07-.06.15-.12.22-.18.07-.06.15-.13.22-.2.07-.07.14-.13.2-.2.07-.07.13-.14.19-.21.06-.07.13-.15.19-.22s.12-.15.17-.23c.06-.08.11-.16.17-.24.05-.08.1-.16.15-.24.05-.08.1-.17.14-.26.04-.09.08-.17.13-.26.04-.09.08-.18.12-.27.04-.09.07-.19.1-.28.03-.09.06-.18.09-.27.03-.1.05-.2.08-.3.02-.09.04-.18.06-.27.02-.1.03-.21.05-.32.01-.09.02-.19.03-.28,0-.11.01-.22.02-.32v-.41c-.27-6.82-2.95-12.98-7.24-17.65l14.54-14.54,30,30-12.65,12.65-.04.04s0,0,0,0l-59.94,59.94-.07.07s-.03.03-.05.05c-.17.18-.34.37-.49.57-.02.02-.04.05-.06.07-.16.22-.3.44-.42.68-.01.02-.02.05-.04.07-.12.23-.22.47-.31.72,0,.02-.01.03-.02.05-.09.27-.17.54-.22.81-.05.27-.09.55-.1.83v.04c0,.09-.01.19-.01.28,0,.18.02.35.03.52v.03c.03.27.07.54.13.81,0,.03.02.06.02.1.07.26.15.52.25.77,0,.01.01.03.02.04.14.35.32.67.52.98.01.02.03.05.04.07.21.32.45.61.72.88.01.01.02.03.03.04,0,0,.02.01.02.02.03.03.05.06.08.08,11.38,11.34,26.5,17.58,42.57,17.58s31.28-6.28,42.68-17.68l15.02-15.02,129.39,129.39,5.59,5.59s-.03.02-.04.03h0ZM488.81,494.73l-125.64-125.64.02-.02h0s5.27-5.28,5.27-5.28c1.97-1.97,2.26-4.98.9-7.29-.25-.42-.54-.83-.9-1.19-2.35-2.34-6.15-2.34-8.49,0l-9.52,9.52-19.26,19.26c-9.13,9.14-21.28,14.17-34.19,14.17-10.89,0-21.22-3.59-29.67-10.19h0s0,0,0-.01l56.23-56.23,16.17-16.17,24.54-24.54,3.88,3.88,5.08,5.08,1.28,1.28,4,4,2.86,2.86,3.14,3.14,24.97,24.97,2.2,2.2,1.5,1.5,1.12,1.12,27.05,27.05c1.17,1.17,2.71,1.76,4.24,1.76s3.07-.59,4.23-1.76c2.33-2.35,2.33-6.15,0-8.48l-.33-.33h0s0,0,0,0h0s.01,0,.01,0h0s29.95-29.96,29.95-29.96l69.87,69.86c-7.28,22.74-18.14,44.09-32.1,63.3-8.38,11.53-17.87,22.3-28.39,32.14ZM559.94,330.73c0,18.77-2.32,37.35-6.89,55.38l-69.39-69.39-5.32-5.32h0v-.02l39.59-39.59,41.32,41.32c.45,5.85.69,11.77.69,17.61h0Z"/>
  <path class="cls-1" d="M131.67,189.07h0c2.69,3.18,5.73,5.19,9.11,6.01s6.94.73,10.66-.29c3.72-1.02,7.97-2.73,12.72-5.15,3.54-1.82,6.45-3.18,8.73-4.07,2.28-.89,4.46-1.24,6.54-1.04,2.08.2,3.9,1.22,5.45,3.05,1.95,2.31,2.54,5.11,1.77,8.41-.77,3.3-2.81,6.34-6.13,9.14-2.41,2.04-4.68,3.3-6.81,3.78-2.13.49-4.1.48-5.91-.01s-3.81-1.32-6-2.49c-1.83-.99-3.47-1.52-4.92-1.59-1.45-.06-2.77.4-3.95,1.4-1.46,1.23-2.25,2.73-2.37,4.49-.13,1.76.38,3.32,1.53,4.68,1.97,2.34,4.79,4.08,8.45,5.23,3.66,1.15,7.37,1.41,11.13.77,5.28-.93,10.65-3.69,16.1-8.3,4.55-3.84,7.84-7.91,9.89-12.22,2.04-4.31,2.8-8.52,2.28-12.63-.53-4.12-2.2-7.84-5.02-11.19-2.35-2.79-4.84-4.73-7.45-5.81-2.62-1.08-5.34-1.51-8.17-1.27-2.83.24-5.88.98-9.15,2.24-3.27,1.25-6.77,2.83-10.5,4.73-3.02,1.47-5.2,2.5-6.56,3.08-1.36.59-2.81,1.03-4.35,1.35-1.54.31-2.95.32-4.24.03-1.28-.29-2.39-1-3.32-2.1-1.51-1.78-1.91-4.06-1.21-6.82.7-2.76,2.5-5.37,5.38-7.8,3.12-2.63,5.87-3.95,8.26-3.97,2.39-.02,4.97.59,7.74,1.83,2.01.8,3.62,1.24,4.82,1.32,1.21.08,2.45-.42,3.73-1.5,1.41-1.19,2.13-2.71,2.17-4.58.04-1.86-.5-3.46-1.62-4.79-1.23-1.46-2.87-2.63-4.92-3.53-2.05-.9-4.48-1.35-7.29-1.37-2.81-.02-5.81.6-8.99,1.85-3.19,1.25-6.47,3.3-9.87,6.16-4.25,3.58-7.4,7.34-9.47,11.25-2.07,3.92-2.94,7.76-2.6,11.52.33,3.76,1.79,7.16,4.35,10.2Z"/>
  <path class="cls-1" d="M212.42,182.25v.02c1.17,2.71,2.66,4.49,4.47,5.34,1.8.85,3.71.83,5.73-.05,1.99-.87,3.32-2.25,4-4.16.68-1.91.42-4.23-.78-6.98l-9.7-22.29,28.98-12.62,9.7,22.29c1.18,2.71,2.67,4.49,4.48,5.34,1.8.85,3.71.83,5.73-.05,1.99-.87,3.32-2.25,4-4.16.68-1.91.42-4.23-.78-6.98l-22.73-52.23c-1.19-2.74-2.71-4.51-4.54-5.31s-3.76-.76-5.78.12c-1.99.87-3.3,2.24-3.93,4.13s-.35,4.19.83,6.9l8.27,18.99-28.98,12.62-8.27-18.99c-1.19-2.74-2.71-4.51-4.54-5.31-1.83-.8-3.76-.76-5.78.12-2.05.89-3.38,2.28-3.98,4.15-.6,1.88-.31,4.17.87,6.88l22.73,52.23Z"/>
  <path class="cls-1" d="M281.07,153.9h0c.37,3.14,1.34,5.33,2.89,6.57,1.55,1.24,3.92,1.67,7.08,1.29l39.52-4.71c2.29-.27,3.94-1.01,4.98-2.21,1.03-1.2,1.45-2.65,1.25-4.35-.21-1.76-.96-3.11-2.24-4.03-1.29-.92-3.07-1.25-5.36-.98l-33.89,4.04-2.43-20.42,30.17-3.59c2.25-.27,3.86-.98,4.81-2.14.95-1.16,1.33-2.55,1.14-4.18-.19-1.63-.9-2.88-2.11-3.75-1.21-.87-2.93-1.17-5.15-.9l-30.17,3.59-2.1-17.63,32.76-3.9c2.32-.28,3.98-1,4.98-2.16,1-1.16,1.4-2.59,1.2-4.29-.2-1.67-.92-2.94-2.17-3.84-1.25-.89-3.03-1.2-5.35-.93l-38.39,4.57c-2.06.24-3.71.75-4.96,1.51s-2.11,1.84-2.57,3.24c-.46,1.4-.57,3.14-.32,5.23l6.43,53.97Z"/>
  <path class="cls-1" d="M351.56,158.97h0c2.14.34,3.99-.09,5.56-1.3,1.56-1.21,2.59-3.33,3.08-6.34l3.73-22.93,5.06.82c2.56.42,4.63,1.1,6.21,2.06,1.58.96,3.03,2.49,4.37,4.61,1.34,2.12,2.76,5.11,4.26,8.99l4.22,10.58c.99,2.49,1.79,4.39,2.4,5.69.6,1.3,1.4,2.42,2.38,3.36s2.28,1.55,3.9,1.81c1.36.22,2.61.15,3.73-.22,1.12-.37,2.06-.96,2.81-1.79.75-.83,1.2-1.71,1.36-2.65.15-.91-.09-2.65-.72-5.24-.63-2.58-1.62-5.53-2.96-8.83-1.34-3.3-2.97-6.47-4.87-9.51-1.9-3.04-4.03-5.45-6.37-7.23,6.32-.34,11.24-1.85,14.76-4.54,3.52-2.69,5.71-6.7,6.58-12.02.42-2.6.38-5.13-.14-7.59-.52-2.47-1.49-4.71-2.92-6.75-1.44-2.03-3.19-3.7-5.28-5.01-1.71-1.14-3.7-2.04-5.96-2.69-2.26-.65-5.01-1.24-8.26-1.77l-23.51-3.83c-3.12-.51-5.48-.18-7.11.99-1.62,1.17-2.69,3.31-3.19,6.43l-8.94,54.91c-.47,2.89-.19,5.18.83,6.88s2.69,2.74,4.99,3.11ZM368.81,98.4h.01s13.34,2.18,13.34,2.18c4.96.81,8.23,1.71,9.8,2.7,1.66,1.04,2.87,2.39,3.63,4.06.76,1.67.98,3.5.66,5.48-.41,2.53-1.36,4.42-2.84,5.66s-3.46,1.97-5.93,2.18c-2.47.22-5.44.04-8.91-.53l-12.95-2.11,3.19-19.62Z"/>
  <path class="cls-1" d="M417.37,173.69h.01c1.9.91,3.8.97,5.69.21,1.89-.76,3.48-2.47,4.74-5.12l8.82-18.47,12.11,5.78c8.1,3.87,15.01,5.06,20.75,3.59,5.74-1.47,10.18-5.53,13.35-12.18,1.49-3.12,2.32-6.16,2.5-9.13.18-2.97-.29-5.78-1.41-8.43-1.12-2.65-2.84-4.98-5.16-7-2.33-2.06-6.01-4.29-11.02-6.68l-16.96-8.09c-2.91-1.39-5.33-1.78-7.26-1.17-1.93.61-3.59,2.37-4.98,5.27l-24.01,50.29c-1.25,2.61-1.58,4.88-1.01,6.81.57,1.93,1.85,3.37,3.84,4.32ZM450.9,120.39h0s8.9,4.26,8.9,4.26c5.9,2.82,9.35,5.65,10.32,8.48.83,2.62.55,5.37-.82,8.24-1.15,2.4-2.62,4.08-4.43,5.04-1.81.96-3.91,1.27-6.31.92-2.4-.35-5.16-1.26-8.28-2.75l-8.9-4.25,9.52-19.94Z"/>
  <path class="cls-1" d="M462.21,183.44h-.02c-.92.59-1.7,1.27-2.33,2.03-1.09,1.32-1.52,2.94-1.29,4.88.23,1.94,1.05,3.5,2.47,4.67,1.67,1.38,3.28,1.89,4.82,1.53,1.54-.37,3.98-1.51,7.33-3.44l8.57-4.94,22.64,18.75-3.13,9.19c-.36,1.15-.76,2.5-1.2,4.04-.44,1.54-.67,2.75-.69,3.66-.02.9.16,1.77.53,2.61.37.84,1,1.63,1.89,2.36,1.52,1.26,3.26,1.79,5.23,1.61s3.49-.92,4.56-2.21c1.03-1.24,2.1-3.7,3.23-7.38l15.21-47.98c.81-2.36,1.43-4.27,1.88-5.71s.74-2.9.87-4.37c.13-1.47-.08-2.94-.64-4.41-.56-1.47-1.62-2.85-3.19-4.15-1.54-1.28-3.09-2.06-4.63-2.33-1.54-.28-3.04-.2-4.48.23-1.44.43-3.05,1.13-4.83,2.12-1.78.98-3.3,1.83-4.56,2.53l-44.19,24.37c-1.78.96-3.13,1.74-4.05,2.34ZM519,166.01h.01l-10.64,29.93-16.64-13.78,27.27-16.15Z"/>
  <path class="cls-4" d="M559.25,313.11l-41.32-41.32-39.59,39.59h0s5.32,5.33,5.32,5.33l69.39,69.39c4.57-18.03,6.89-36.61,6.89-55.38h0c0-5.84-.24-11.76-.69-17.61Z"/>
  <path class="cls-4" d="M543.5,246.23l-17.08,17.08,30.5,30.5c-2.7-16.32-7.18-32.24-13.42-47.58Z"/>
  <path class="cls-3" d="M479.42,329.45l-29.94,29.93h-.01s.33.34.33.34c2.34,2.34,2.34,6.13,0,8.48,0,0,0,0,0,0-1.17,1.17-2.71,1.76-4.24,1.76s-3.07-.59-4.24-1.76l-27.05-27.05-1.12-1.12-1.5-1.5c-4.08,3.23-10.95,7.11-20.94,7.97-17.79,1.53-22.95-14.65-32.33-17.09-5.91-1.54-9.7,1.18-17.29,6.95-6.63,5.04-12.48,1.63-17.55-4.53l-56.22,56.22h0c8.45,6.61,18.78,10.2,29.67,10.2,12.91,0,25.06-5.03,34.19-14.17l19.26-19.26,9.52-9.52c2.34-2.34,6.14-2.34,8.49,0,.37.36.65.77.9,1.19,1.37,2.3,1.07,5.31-.9,7.3l-5.26,5.26-.02.02,125.64,125.64c10.51-9.84,20.01-20.61,28.39-32.14,13.96-19.21,24.81-40.55,32.09-63.28l-69.87-69.86Z"/>
  <polygon class="cls-3" points="449.47 359.4 449.47 359.4 449.47 359.39 449.47 359.4"/>
  <path class="cls-6" d="M484.06,506.98l-129.37-129.37-15.02,15.02v-.04c-11.4,11.4-26.56,17.68-42.68,17.68s-31.18-6.24-42.57-17.58c-.03-.03-.05-.06-.08-.08,0,0-.02-.01-.02-.02-.01-.01-.02-.03-.03-.04-.27-.27-.51-.56-.72-.88-.02-.02-.03-.05-.04-.07-.2-.31-.38-.64-.52-.98,0-.01-.01-.03-.02-.04-.1-.25-.18-.51-.25-.77,0-.03-.02-.06-.02-.1-.06-.26-.1-.53-.13-.81v-.03c-.02-.17-.03-.35-.03-.52,0-.1.01-.19.01-.28v-.04c.02-.28.05-.56.1-.83.05-.28.13-.55.22-.81,0-.02.01-.03.02-.05.09-.25.19-.49.31-.72.01-.02.02-.05.04-.07.13-.24.27-.47.43-.69,0-.01.02-.02.02-.03.02-.02.04-.05.06-.07.15-.2.32-.39.49-.57.02-.02.03-.04.05-.05l.07-.07,59.94-59.94s0,0,0,0c-.57,0-1.14,0-1.73-.08-6.74-.82-8.44-4.14-14.28-4.14-4.67,0-11.03,8.5-21.6,8.5-6.07,0-11.16-3.97-14.39-8.5h-3.76l-5.57,5.57-28.93,28.93-9.4,9.4c-1.17,1.17-2.71,1.76-4.24,1.76s-3.07-.59-4.24-1.76c-1.18-1.18-1.76-2.72-1.75-4.27,0-1.53.59-3.05,1.75-4.22l5.16-5.16-.02-.03-20.38-20.38-69.56,69.56h-.01c10.23,31.97,27.74,61.53,50.95,86.02l53.17-53.16c1.13-1.12,2.65-1.76,4.24-1.76s3.12.63,4.24,1.76l38.43,38.43,37.81,37.81c.33.22.64.48.92.76l37.98,38.47c1.15,1.17,1.73,2.69,1.73,4.21,0,1.54-.58,3.07-1.75,4.25l-5.07,5.08s-.03,0-.05,0h0l-4.41,4.41c-.07.07-.14.13-.21.2l-2.7,2.7h0c16.76-.09,33.44-1.92,49.78-5.45h0l-6.09-6.09h0s-.02,0-.03,0l-20.5-20.5c-.88-.88-1.43-1.96-1.65-3.1-.36-1.89.18-3.92,1.65-5.39,2.34-2.35,6.14-2.34,8.49,0l25.85,25.85s.02,0,.02,0l5.86,5.86c1.86-.52,3.72-1.06,5.58-1.62,9.26-2.81,18.34-6.18,27.19-10.08,3.54-1.56,7.04-3.21,10.5-4.94l-4.02-4.02c-.07-.07-.14-.13-.21-.2h0l-1.37-1.37s-.01,0-.02,0l-39.41-39.42c-.88-.88-1.43-1.97-1.65-3.11-.36-1.89.19-3.91,1.65-5.38,2.34-2.34,6.14-2.34,8.49,0l40.61,40.62c.07.07.14.13.21.2l1.23,1.23s.01,0,.02-.01c0,0,0,0,0,0l5.53,5.53h0c12.46-7.1,24.32-15.32,35.32-24.55h0s-5.58-5.59-5.58-5.59c0,0-.01.01-.02.02Z"/>
  <polygon class="cls-6" points="454.35 537.11 454.35 537.11 454.34 537.11 454.35 537.11"/>
  <polygon class="cls-6" points="343.96 561.19 343.96 561.19 343.97 561.18 343.96 561.19"/>
  <path class="cls-3" d="M306.84,521.87l-31.59,31.59s-.01,0-.02,0l-5.9,5.9c16.55,4.69,33.59,7.6,50.81,8.67l6.8-6.8s.02,0,.03,0l4.09-4.09c.07-.07.14-.13.21-.2h-.01l5.12-5.13-29.55-29.93h0Z"/>
  <polygon class="cls-3" points="275.23 553.45 275.24 553.45 275.24 553.45 275.23 553.45"/>
  <path class="cls-3" d="M262.2,549.52l5.29-5.29c.07-.08.12-.16.19-.24h0s30.61-30.56,30.61-30.56h0l-30.14-30.14-47.55,47.55h0c8.19,4.71,16.7,8.93,25.49,12.62,5.27,2.21,10.64,4.24,16.11,6.06Z"/>
  <path class="cls-3" d="M262.2,549.52c-5.46-1.82-10.84-3.85-16.11-6.06-8.79-3.69-17.3-7.91-25.49-12.62l-1.1,1.1c-.07.07-.14.14-.21.2l-4.26,4.26s0,0,0,0c13.15,7.59,27.04,13.91,41.4,18.88l5.76-5.76Z"/>
  <path class="cls-3" d="M259.66,474.8l-29.93-29.93-53.17,53.16c10.31,9.78,21.51,18.62,33.49,26.38,0,0,0,0,.01,0l.96-.96c.07-.07.14-.14.21-.2h0s48.44-48.45,48.44-48.45h0Z"/>
  <path class="cls-3" d="M176.55,498.03h-.01s-.02.04-.04.06c-.02.02-.03.03-.05.04l-5.5,5.5-.02.02c10.44,9.79,21.7,18.6,33.58,26.31l5.54-5.54s0,0,0,0c-11.98-7.76-23.19-16.61-33.49-26.39h0Z"/>
  <polygon class="cls-3" points="176.55 498.03 176.55 498.03 176.56 498.02 176.55 498.03"/>
  <path class="cls-2" d="M115.74,311.04s.03-.04.04-.05h.01l38.04-38.03-26.71-26.71h0c-9.01,22.15-14.35,45.39-15.93,69.35h.01s4.55-4.56,4.55-4.56Z"/>
  <path class="cls-2" d="M165.24,308.44h0c-6.73-6.71-17.68-6.71-24.4.01-6.73,6.73-6.73,17.68,0,24.41,3.25,3.26,7.59,5.06,12.19,5.06s8.94-1.8,12.21-5.06c6.73-6.73,6.73-17.68,0-24.42Z"/>
</svg>