<?xml version="1.0" encoding="UTF-8"?>
<svg id="Calque_1" data-name="Calque 1" xmlns="http://www.w3.org/2000/svg" viewBox="0 0 109.44 109.89">
  <defs>
    <style>
      .cls-1 {
        fill: #1d1d1b;
      }
    </style>
  </defs>
  <path class="cls-1" d="M54.29,58.22c-2.28,0-4.13,3.15-4.13,7.05s1.85,1.01,4.13,1.01,4.13,2.88,4.13-1.01-1.85-7.05-4.13-7.05Z"/>
  <path class="cls-1" d="M41.08,42.15c-4.19,0-7.59,3.4-7.59,7.59s3.4,7.59,7.59,7.59,7.59-3.4,7.59-7.59-3.4-7.59-7.59-7.59Z"/>
  <path class="cls-1" d="M68.36,42.15c-4.19,0-7.59,3.4-7.59,7.59s3.4,7.59,7.59,7.59,7.59-3.4,7.59-7.59-3.4-7.59-7.59-7.59Z"/>
  <path class="cls-1" d="M75.57,19.36c-13.87,0-20.85,11.22-20.85,11.22,0,0-6.98-11.22-20.85-11.22-17.34,0-21.82,14.68-21.82,22.64,0,30.8,42.68,50.17,42.68,50.17,0,0,42.68-19.38,42.68-50.17,0-7.95-4.49-22.64-21.82-22.64ZM70.58,67.54c0,.74,0,1.48,0,2.21-.03,1.54-1.24,3.23-2.76,3.67-.81.24-1.62.45-2.43.64-.46.11-.89-.25-.89-.71v-.97c0-.49-.47-.87-.99-.7-.31.1-.5.41-.5.74v1.52c0,.36-.26.67-.61.72-1.06.18-2.12.31-3.19.42-.43.04-.8-.3-.8-.73v-1.97c0-.49-.47-.87-.99-.7-.31.1-.5.41-.5.74v2.13c0,.39-.31.72-.7.73-1.06.04-2.12.04-3.19,0-.39-.01-.7-.34-.7-.73v-2.16c0-.49-.47-.87-.99-.7-.31.1-.5.41-.5.74v1.94c0,.43-.37.77-.8.73-1.07-.1-2.13-.24-3.19-.42-.35-.06-.61-.37-.61-.72v-1.56c0-.49-.47-.87-.99-.7-.31.1-.5.41-.5.74v.93c0,.47-.44.82-.89.71-.81-.19-1.62-.4-2.43-.64-1.52-.44-2.73-2.13-2.76-3.67v-2.28c-8.63-3.27-17.52-8.53-17.52-16.34,0-3.92,3.53-15.16,17.16-15.16,10.9,0,16.4,5.53,16.4,5.53,0,0,5.49-5.53,16.4-5.53,13.63,0,17.16,11.24,17.16,15.16,0,7.87-9.02,13.15-17.7,16.41Z"/>
</svg>