<?xml version="1.0" encoding="UTF-8"?>
<svg id="Calque_1" data-name="Calque 1" xmlns="http://www.w3.org/2000/svg" viewBox="0 0 367.58 109.89">
  <defs>
    <style>
      .cls-1 {
        fill: #1d1d1b;
      }
    </style>
  </defs>
  <path class="cls-1" d="M93.05,45.78v-2.73c-.58-8.42-2.63-14.58-6.17-18.48-3.54-3.9-8.15-5.85-13.84-5.85-4.54,0-8.32.74-11.36,2.22-3.04,1.48-5.56,4.01-7.55,7.58-2,3.58-3.56,8.48-4.67,14.71l-2.83-.75,2.65-21.97h-23.41v70.36h23.99v-33.1c0-5.65,1.1-9.97,3.29-12.95,2.19-2.98,5.09-4.47,8.71-4.47,3.34,0,5.83,1.21,7.47,3.63,1.63,2.42,2.45,6.5,2.45,12.23v34.66h23.19l24.39-53.63h2.71v53.63h21.86V20.49h-43.08l-7.79,25.28Z"/>
  <path class="cls-1" d="M216.65,27.79c-6.33-6.03-15.95-9.04-28.87-9.04-6.57,0-12.63,1.38-18.16,4.14-5.53,2.76-9.96,6.83-13.26,12.21-3.31,5.38-4.96,11.87-4.96,19.47,0,12.62,3.12,21.91,9.35,27.88,6.23,5.97,15.72,8.95,28.45,8.95,6.91,0,13.17-1.35,18.76-4.05,5.59-2.7,10.02-6.72,13.29-12.04,3.27-5.33,4.9-11.77,4.9-19.33,0-12.77-3.17-22.17-9.49-28.19ZM206.19,65.17c-1.55,2.23-3.7,3.78-6.46,4.65-2.75.87-6.15,1.3-10.19,1.3-6.09,0-11.05-1.29-14.89-3.88-3.84-2.59-5.75-6.81-5.75-12.67,0-3.97.79-7.06,2.37-9.29,1.58-2.23,3.76-3.78,6.54-4.65,2.78-.87,6.19-1.3,10.23-1.3,6.15,0,11.1,1.29,14.84,3.88,3.75,2.59,5.62,6.85,5.62,12.78,0,3.89-.78,6.95-2.33,9.18Z"/>
  <path class="cls-1" d="M337.9,27.79c-6.33-6.03-15.95-9.04-28.87-9.04-6.57,0-12.63,1.38-18.16,4.14-5.53,2.76-9.96,6.83-13.26,12.21-3.31,5.38-4.96,11.87-4.96,19.47,0,12.62,3.12,21.91,9.35,27.88,6.23,5.97,15.72,8.95,28.45,8.95,6.91,0,13.17-1.35,18.76-4.05,5.59-2.7,10.02-6.72,13.29-12.04,3.27-5.33,4.9-11.77,4.9-19.33,0-12.77-3.17-22.17-9.49-28.19ZM327.44,65.17c-1.55,2.23-3.7,3.78-6.46,4.65-2.75.87-6.15,1.3-10.19,1.3-6.09,0-11.05-1.29-14.89-3.88-3.84-2.59-5.75-6.81-5.75-12.67,0-3.97.79-7.06,2.37-9.29,1.58-2.23,3.76-3.78,6.54-4.65,2.78-.87,6.19-1.3,10.23-1.3,6.15,0,11.1,1.29,14.84,3.88,3.75,2.59,5.62,6.85,5.62,12.78,0,3.89-.78,6.95-2.33,9.18Z"/>
  <path class="cls-1" d="M242.44,61.76c0,1.88-.12,3.33-.36,4.34-.24,1.01-.72,1.78-1.44,2.29-.72.52-1.8.77-3.24.77-1.66,0-.07.23-6.98-.86l-4.39,21.28c8.61,1.46,13.12,1.98,18.17,1.98,7.04-.04,12.54-1.89,16.51-5.56,3.96-3.67,5.95-9.96,5.95-18.89V20.51h-24.22v41.25Z"/>
</svg>